<?xml version="1.0" standalone="no"?>
<!DOCTYPE svg PUBLIC "-//W3C//DTD SVG 20010904//EN"
 "http://www.w3.org/TR/2001/REC-SVG-20010904/DTD/svg10.dtd">
<svg version="1.0" xmlns="http://www.w3.org/2000/svg"
 width="1280.000000pt" height="1273.000000pt" viewBox="0 0 1280.000000 1273.000000"
 preserveAspectRatio="xMidYMid meet">
<metadata>
Created by potrace 1.15, written by Peter Selinger 2001-2017
</metadata>
<g transform="translate(0.000000,1273.000000) scale(0.100000,-0.100000)"
fill="#85345C" stroke="none">
<path d="M8083 12716 c-132 -42 -238 -179 -279 -364 -43 -191 37 -450 222
-724 l76 -113 -131 -1185 c-72 -652 -131 -1188 -131 -1192 0 -5 -6 -8 -13 -8
-35 0 -140 -65 -186 -116 -94 -103 -141 -234 -141 -395 0 -154 -35 -232 -159
-356 -85 -85 -163 -123 -252 -123 -77 0 -150 23 -204 65 -19 14 -63 69 -99
123 -81 122 -151 200 -229 256 -87 61 -117 75 -224 101 -114 28 -153 53 -241
154 -109 126 -134 208 -78 260 40 38 82 37 202 -3 232 -76 386 -73 554 11 65
33 100 62 250 213 188 187 213 223 247 354 21 79 20 244 -1 361 -20 115 -20
180 1 267 20 82 17 88 -54 138 -69 48 -260 217 -267 236 -3 9 -6 27 -6 40 0
14 -5 35 -11 47 -17 32 -142 180 -222 264 -62 64 -70 77 -71 114 -1 34 4 46
32 70 41 37 75 37 113 0 34 -34 38 -75 13 -123 -15 -30 -15 -34 1 -65 22 -40
98 -93 135 -93 37 0 103 50 123 93 9 19 17 52 17 73 0 33 -7 45 -57 94 -38 36
-73 60 -101 68 -111 33 -101 169 16 219 47 20 90 4 141 -53 68 -73 76 -117 35
-177 -34 -51 -29 -77 21 -102 48 -23 168 -32 218 -16 19 6 52 27 74 46 92 78
109 219 42 346 -45 86 -193 234 -271 272 -102 49 -166 54 -354 31 -36 -4 -54
-3 -59 6 -4 7 -16 50 -26 96 -37 168 -116 281 -228 326 -49 20 -74 22 -211 23
-171 0 -188 -4 -263 -71 -67 -61 -121 -40 -134 51 -5 40 -15 59 -52 98 -98
105 -198 118 -361 47 -100 -44 -145 -41 -251 14 -197 104 -341 142 -498 133
-207 -11 -369 -115 -514 -328 -56 -82 -57 -85 -57 -154 0 -83 -22 -138 -71
-179 -29 -25 -39 -28 -81 -23 -68 8 -156 53 -179 91 -60 98 -22 185 68 155 67
-22 96 44 47 108 -28 37 -72 63 -105 63 -40 0 -90 -41 -115 -94 -46 -98 -24
-211 60 -304 41 -45 42 -49 19 -75 -19 -21 -24 -15 56 -80 12 -10 21 -26 19
-35 -3 -14 -13 -16 -65 -14 -133 8 -137 -21 -18 -134 59 -56 83 -86 79 -97 -3
-9 -34 -25 -69 -37 -181 -60 -286 -172 -321 -344 -19 -87 -11 -351 13 -436 28
-102 137 -180 251 -180 114 0 199 -139 147 -241 -9 -16 -38 -55 -66 -85 -27
-30 -54 -67 -59 -80 -15 -40 -12 -114 9 -197 34 -131 82 -201 167 -243 48 -23
66 -27 144 -26 75 1 93 -2 114 -19 14 -11 26 -29 26 -40 0 -11 -27 -48 -59
-83 -72 -78 -101 -131 -101 -188 0 -73 57 -138 180 -205 30 -16 82 -46 115
-67 80 -49 195 -84 335 -103 131 -17 201 -43 232 -85 18 -26 20 -38 14 -111
-8 -91 -27 -161 -55 -194 -52 -62 -132 -89 -184 -62 -62 33 -378 333 -628 595
-152 161 -190 181 -451 248 -366 94 -589 125 -993 136 -331 9 -431 21 -655 76
-364 90 -705 262 -1020 516 -194 156 -385 406 -526 688 -154 309 -231 614
-254 1007 -5 91 -12 168 -16 172 -9 9 -60 -55 -99 -124 -60 -108 -80 -192 -80
-340 1 -229 75 -458 249 -770 37 -66 65 -129 64 -140 -3 -19 -9 -20 -85 -16
-70 3 -84 1 -89 -13 -15 -39 92 -267 203 -436 114 -172 226 -304 435 -512 165
-165 198 -202 198 -226 0 -35 -27 -62 -63 -62 -28 0 -33 4 -341 273 -98 87
-187 157 -197 157 -11 0 -28 -9 -39 -20 -24 -24 -23 -27 32 -190 153 -448 435
-804 856 -1081 203 -134 401 -229 532 -258 82 -18 108 -30 135 -63 31 -36 31
-51 3 -79 -20 -18 -31 -20 -78 -16 -69 7 -210 48 -320 93 -136 57 -156 61
-180 39 -29 -26 -25 -66 12 -133 213 -384 540 -613 1008 -706 69 -13 159 -27
200 -31 107 -9 126 -13 111 -28 -6 -7 -94 -39 -194 -73 -170 -57 -182 -62
-185 -87 -3 -22 7 -33 70 -78 317 -225 699 -247 1173 -66 81 31 123 43 130 36
15 -15 10 -129 -8 -170 -9 -20 -32 -58 -52 -84 -20 -26 -33 -51 -28 -56 11
-11 168 22 268 56 44 15 120 47 170 71 102 50 121 53 159 23 46 -37 37 -71
-41 -142 -214 -194 -332 -355 -385 -527 -32 -106 -32 -255 1 -360 53 -171 105
-242 391 -534 265 -270 485 -479 833 -790 168 -151 267 -245 265 -255 -8 -42
-362 -53 -526 -16 -102 23 -210 60 -234 82 -11 10 -46 52 -76 93 -77 104 -134
162 -229 236 -99 78 -139 96 -216 96 -113 0 -251 -98 -364 -261 -103 -147
-104 -147 -336 -131 -271 19 -432 -4 -606 -87 -186 -89 -257 -224 -149 -288
29 -17 41 -17 207 -5 307 21 587 -18 796 -112 262 -118 475 -164 843 -178 419
-17 697 -65 1030 -177 138 -46 178 -67 185 -95 10 -38 -30 -104 -96 -161 -100
-84 -142 -133 -180 -205 -71 -137 -97 -256 -106 -492 -6 -168 -8 -178 -38
-241 -60 -128 -140 -189 -281 -214 -164 -29 -268 -94 -311 -195 -61 -141 -35
-231 136 -474 26 -37 28 -46 27 -130 -2 -108 -47 -281 -121 -466 -60 -147 -64
-194 -28 -286 73 -184 207 -421 242 -430 41 -11 55 10 104 157 72 218 164 433
329 764 158 319 239 461 335 590 63 84 284 311 397 408 81 70 137 151 173 254
96 273 271 648 345 742 46 58 117 96 265 141 104 32 325 80 367 80 47 0 141
31 185 61 92 63 158 224 152 368 -4 76 -7 86 -81 233 -178 355 -452 778 -764
1178 -66 85 -126 166 -133 179 -19 35 -7 72 48 145 96 127 154 250 202 431 63
236 96 619 85 957 -9 260 -5 268 181 328 194 62 442 90 810 90 l222 0 6 -32
c3 -18 46 -418 96 -888 50 -470 112 -1053 138 -1295 l48 -440 -53 -70 c-145
-194 -191 -331 -173 -524 28 -307 157 -475 401 -525 113 -23 133 -21 209 24
196 116 257 259 179 417 -38 76 -172 224 -232 254 -81 41 -190 16 -217 -50
-25 -60 -8 -95 93 -195 50 -51 98 -106 105 -124 26 -63 -7 -104 -97 -118 -76
-12 -184 53 -226 138 -34 67 -36 165 -5 259 117 357 381 607 839 793 224 90
299 124 450 202 474 247 796 554 953 911 76 173 109 340 110 548 0 257 -39
461 -119 625 -39 78 -61 109 -128 175 l-81 81 13 64 c19 91 21 380 3 450 -34
137 -115 266 -222 350 l-48 37 86 43 c46 23 120 71 164 106 l80 64 939 0 c609
0 940 -3 940 -10 0 -5 -22 -71 -50 -147 -27 -76 -50 -141 -50 -145 0 -4 35 18
77 48 43 31 109 74 148 97 78 45 310 158 368 178 20 7 37 16 37 19 0 3 -17 12
-37 19 -58 20 -290 133 -368 178 -39 23 -105 66 -148 97 -42 30 -77 52 -77 47
0 -4 24 -73 54 -154 l54 -147 -914 0 -914 0 31 62 c68 134 90 236 90 413 0
144 -10 227 -46 390 -57 253 -275 599 -568 902 -205 212 -375 357 -902 772
-471 372 -627 509 -781 693 -292 348 -370 673 -184 768 121 62 267 -18 278
-153 3 -45 1 -55 -21 -75 -27 -26 -40 -28 -113 -17 -49 7 -51 6 -78 -26 -22
-26 -27 -39 -22 -63 9 -42 70 -130 118 -168 36 -28 44 -30 92 -25 68 7 159 53
214 108 58 59 77 123 77 259 0 95 -3 111 -29 167 -81 176 -335 294 -513 239z
m372 -1584 c93 -96 333 -331 532 -524 383 -369 455 -451 568 -643 152 -257
253 -555 301 -882 19 -130 20 -423 2 -533 l-13 -75 -683 0 -684 0 -22 70 c-81
255 -310 524 -489 574 -41 12 -47 17 -47 40 0 27 236 2182 246 2239 l5 32 57
-62 c31 -35 133 -141 227 -236z m1365 -2749 c0 -19 -83 -172 -108 -200 -31
-33 -84 -53 -143 -53 -51 0 -118 -39 -140 -80 -23 -42 -24 -76 -4 -123 8 -20
15 -56 15 -81 0 -37 -5 -48 -30 -70 -17 -13 -49 -28 -73 -31 -46 -7 -247 23
-347 51 -97 27 -281 29 -520 4 -118 -12 -271 -23 -339 -23 l-125 -2 -7 35 c-4
19 -10 70 -13 113 l-7 77 39 0 c21 0 64 -5 96 -11 43 -8 77 -7 127 1 147 25
215 114 241 317 l11 83 663 0 c365 0 664 -3 664 -7z m-1916 -400 c2 -10 7 -58
11 -107 l7 -88 -44 7 c-64 11 -139 43 -170 73 -52 48 -28 94 59 118 73 19 131
18 137 -3z m1773 -814 c62 -30 162 -141 211 -236 69 -132 85 -210 86 -398 0
-141 -3 -173 -27 -268 -33 -132 -79 -246 -149 -365 -110 -189 -228 -311 -646
-669 -479 -410 -552 -474 -667 -585 l-121 -116 -62 581 c-34 320 -96 897 -137
1281 -41 385 -73 702 -70 704 3 3 49 -5 102 -16 372 -83 760 -53 1288 98 79
22 128 20 192 -11z"/>
</g>
</svg>
