<?xml version="1.0" standalone="no"?>
<!DOCTYPE svg PUBLIC "-//W3C//DTD SVG 20010904//EN"
 "http://www.w3.org/TR/2001/REC-SVG-20010904/DTD/svg10.dtd">
<svg version="1.0" xmlns="http://www.w3.org/2000/svg"
 width="1280.000000pt" height="798.000000pt" viewBox="0 0 1280.000000 798.000000"
 preserveAspectRatio="xMidYMid meet">
<metadata>
Created by potrace 1.15, written by Peter Selinger 2001-2017
</metadata>
<g transform="translate(0.000000,798.000000) scale(0.100000,-0.100000)"
fill="#85345C" stroke="none">
<path d="M5145 7100 c-135 -9 -119 -6 -150 -34 l-25 -24 97 -30 c54 -17 127
-36 163 -43 36 -6 85 -23 110 -36 25 -12 50 -23 57 -23 6 0 14 -4 17 -9 3 -4
-17 -4 -44 1 -126 23 -238 31 -395 31 -156 -1 -183 -4 -336 -37 -91 -20 -211
-51 -267 -70 -56 -18 -99 -30 -96 -25 3 5 1 9 -5 9 -18 0 -118 -47 -125 -59
-4 -6 -18 -11 -32 -11 -14 0 -43 -9 -66 -21 -33 -17 -40 -18 -35 -5 4 10 1 13
-9 9 -7 -3 -14 -12 -14 -20 0 -16 -37 -50 -124 -111 -33 -24 -60 -47 -59 -52
1 -4 -21 -27 -50 -51 -103 -85 -297 -283 -297 -301 0 -11 -4 -17 -9 -13 -5 3
-13 0 -17 -6 -4 -8 -3 -9 4 -5 19 11 14 1 -26 -66 -40 -68 -75 -138 -67 -138
3 0 14 18 25 40 23 46 34 53 20 13 -16 -43 6 -11 79 122 68 122 138 201 316
359 44 39 80 74 80 79 0 8 104 77 178 117 68 37 38 6 -44 -45 -44 -27 -88 -59
-97 -70 -9 -10 6 -2 34 18 29 20 58 37 65 37 8 0 28 8 44 18 37 22 125 53 125
44 0 -4 -19 -18 -41 -32 -83 -51 -181 -158 -110 -120 35 18 24 6 -45 -49 -36
-29 -63 -55 -61 -58 11 -10 75 32 132 88 48 47 86 71 195 123 403 193 589 241
935 240 261 0 352 -20 490 -104 17 -10 38 -19 48 -19 9 -1 17 -5 17 -11 0 -10
-32 -1 -210 60 -142 49 -258 63 -326 39 l-39 -14 40 -6 c22 -4 -16 -5 -83 -3
-100 4 -140 0 -210 -16 -126 -30 -292 -82 -292 -92 0 -4 18 -8 41 -8 28 0 38
-4 33 -12 -5 -8 -2 -9 12 -4 49 19 113 22 279 12 150 -9 169 -12 115 -17 -55
-5 -58 -6 -20 -7 246 -11 574 -55 553 -76 -4 -4 0 -4 8 -1 8 3 54 -8 101 -25
48 -16 94 -30 103 -30 17 0 131 -59 177 -91 14 -11 36 -19 47 -19 26 0 27 -10
3 -36 -10 -10 -27 -34 -37 -51 -22 -38 -28 -39 -63 -15 -37 26 -52 34 -52 29
0 -2 18 -16 40 -31 l41 -27 -18 -30 c-12 -21 -24 -29 -36 -25 -15 3 -16 2 -7
-10 10 -11 5 -27 -22 -76 -89 -162 -154 -343 -178 -498 -6 -41 -17 -113 -25
-160 -28 -175 -39 -300 -38 -465 0 -254 35 -467 108 -676 14 -41 30 -87 34
-104 14 -51 78 -191 162 -356 l81 -158 -38 -61 c-20 -34 -43 -64 -49 -68 -6
-4 -31 -36 -56 -72 -24 -36 -47 -67 -50 -70 -4 -3 -17 -21 -30 -40 -14 -19
-49 -69 -80 -110 -56 -77 -119 -175 -119 -187 0 -4 -10 -17 -21 -29 -12 -13
-27 -32 -33 -43 -6 -11 -69 -107 -141 -213 -71 -105 -133 -200 -137 -211 -4
-10 -12 -16 -17 -13 -12 8 -34 -21 -26 -34 4 -6 1 -9 -5 -8 -11 3 -51 -59
-192 -292 -39 -63 -80 -128 -93 -145 -12 -16 -42 -68 -67 -115 -63 -119 -148
-251 -159 -244 -5 3 -6 -3 -2 -12 4 -12 3 -15 -5 -10 -8 5 -10 1 -5 -10 4 -11
2 -15 -4 -11 -6 4 -10 -1 -9 -11 0 -9 -4 -16 -11 -15 -6 1 -14 -4 -17 -13 -4
-9 -2 -12 5 -8 8 4 7 0 0 -15 -7 -11 -14 -21 -17 -21 -3 0 -2 5 1 10 3 6 4 10
1 10 -3 0 -13 -14 -22 -31 -8 -17 -11 -28 -5 -25 7 4 8 1 5 -8 -3 -9 -10 -14
-15 -11 -4 3 -15 -8 -24 -24 -18 -35 -19 -45 -4 -35 8 4 7 0 -1 -15 -6 -12
-16 -19 -22 -15 -7 4 -6 9 2 14 15 9 -88 64 -435 235 -143 70 -264 130 -269
133 -5 3 -6 0 -2 -7 5 -7 47 -32 94 -55 143 -71 386 -198 397 -208 6 -5 -6 -2
-25 6 -50 21 -644 318 -650 325 -3 3 -12 7 -20 9 -15 4 -589 267 -646 297 -16
8 -32 15 -35 15 -4 0 -55 23 -113 50 -58 28 -109 50 -111 50 -3 0 -42 18 -87
40 -44 22 -83 38 -86 36 -5 -6 235 -121 443 -214 88 -39 167 -75 323 -148 42
-20 115 -55 162 -76 235 -110 880 -430 942 -468 59 -36 21 -21 -84 33 -113 58
-184 89 -210 92 -10 1 -26 9 -36 18 -10 9 -25 17 -33 17 -23 -1 -228 103 -223
112 3 4 -7 8 -22 8 -15 0 -72 23 -128 51 -55 29 -144 71 -198 94 -54 23 -94
46 -90 50 4 5 2 5 -5 2 -6 -4 -24 0 -40 8 -15 8 -48 23 -73 34 -25 10 -106 46
-182 80 -75 34 -139 61 -143 61 -34 0 -725 326 -992 469 -51 27 -93 47 -93 45
0 -2 39 -29 88 -60 125 -82 123 -85 -12 -15 -65 34 -121 59 -124 56 -10 -10
-230 130 -327 208 -67 55 -242 223 -281 271 -17 21 -34 37 -36 35 -3 -2 -15 7
-25 20 -18 22 -20 22 -20 5 0 -28 74 -120 184 -227 126 -122 143 -136 298
-247 72 -51 134 -99 138 -107 4 -7 16 -13 26 -13 10 0 24 -7 31 -15 7 -9 43
-32 79 -52 36 -21 67 -40 69 -45 9 -21 556 -282 1207 -576 55 -24 107 -50 115
-57 8 -6 34 -17 58 -24 26 -7 40 -16 36 -23 -4 -6 -3 -8 4 -5 9 6 102 -27 102
-36 0 -2 -11 -3 -25 -2 -14 2 -23 -1 -19 -6 3 -5 11 -9 17 -9 13 0 277 -133
273 -138 -2 -2 -121 53 -331 153 -86 41 -344 158 -530 240 -257 115 -430 193
-599 274 -71 34 -137 59 -146 56 -9 -3 -25 2 -36 11 -18 14 -18 15 4 4 13 -7
25 -10 28 -8 2 2 -27 19 -64 36 -37 18 -58 26 -48 17 29 -22 12 -18 -45 10
-27 14 -47 30 -44 35 3 5 0 12 -6 16 -8 4 -9 3 -5 -4 10 -17 1 -15 -45 8 -24
13 -37 25 -33 32 4 7 3 8 -5 4 -21 -13 -348 195 -336 214 3 4 -24 31 -59 59
-35 28 -126 115 -202 193 -76 79 -120 120 -96 91 63 -76 219 -231 289 -288 34
-27 60 -51 58 -54 -10 -9 -215 181 -308 286 -98 111 -124 145 -97 128 9 -5 11
-4 6 4 -4 6 -11 9 -15 6 -5 -2 -21 14 -37 38 -16 23 -51 74 -79 112 -77 106
-166 258 -160 273 2 7 1 11 -3 8 -13 -8 -121 228 -164 359 -40 122 -68 251
-68 316 0 22 -7 42 -16 50 -18 14 -18 4 2 364 4 70 23 160 50 236 18 52 17 59
-2 34 -15 -19 -15 -19 -9 8 4 15 16 44 26 64 21 40 27 81 9 53 -29 -44 -112
-285 -131 -380 -52 -260 -36 -582 41 -820 67 -206 248 -580 358 -740 207 -300
501 -558 879 -771 118 -66 662 -337 783 -389 66 -29 352 -168 895 -437 94 -46
175 -89 180 -94 12 -13 -10 -4 -78 28 -27 13 -51 22 -53 21 -7 -8 498 -248
508 -242 7 4 8 2 4 -4 -8 -13 52 -46 99 -55 17 -3 80 -34 140 -68 61 -34 145
-81 187 -105 43 -24 131 -71 197 -103 l119 -60 27 40 c14 22 47 79 72 127 25
48 49 92 53 97 5 6 19 30 33 55 13 25 37 68 52 95 47 84 336 567 364 609 14
21 37 56 51 77 144 222 344 507 353 502 6 -3 7 -1 3 5 -8 14 46 99 80 125 13
10 24 23 24 29 0 13 83 129 109 152 12 11 21 25 21 31 0 7 15 24 33 38 28 21
191 231 222 286 6 9 24 35 41 56 l32 39 47 -74 c26 -41 80 -124 120 -185 40
-60 104 -163 141 -227 77 -131 82 -139 158 -258 30 -47 78 -125 107 -175 29
-49 74 -123 101 -164 26 -41 48 -79 48 -84 0 -13 -44 49 -104 146 -26 42 -50
77 -53 77 -2 0 6 -17 18 -37 89 -145 131 -208 138 -208 5 0 13 -4 18 -9 5 -5
3 -6 -4 -2 -21 12 -15 -5 25 -68 22 -34 61 -97 88 -141 27 -44 54 -87 59 -96
6 -9 22 -39 38 -68 15 -28 32 -51 37 -51 11 0 63 -86 130 -215 80 -152 224
-402 243 -422 6 -5 162 73 187 93 8 7 63 37 122 67 59 31 126 67 150 80 63 36
637 327 643 326 3 0 27 9 53 21 256 118 681 300 700 300 10 0 22 4 28 9 8 8
58 29 204 86 19 8 51 16 70 18 42 5 295 103 485 187 22 10 72 30 110 45 39 15
73 29 78 32 4 2 7 2 7 -1 0 -3 -28 -19 -62 -36 -35 -16 -52 -27 -38 -24 45 12
319 141 479 227 149 81 314 183 375 234 25 21 99 64 86 50 -3 -3 -40 -30 -82
-60 -89 -64 -91 -66 -138 -107 l-35 -31 50 33 c194 126 430 351 613 585 17 23
32 45 32 49 0 3 20 33 44 65 97 128 292 512 341 668 44 142 56 196 75 356 23
185 23 188 11 181 -11 -7 -31 122 -24 157 3 16 0 77 -7 135 -13 117 -87 372
-118 413 -11 13 -43 65 -72 114 -29 50 -68 109 -87 132 -33 41 -42 60 -23 48
6 -3 7 1 3 10 -4 12 -8 13 -13 5 -6 -9 -14 -6 -31 11 -15 15 -21 17 -16 6 13
-34 -9 -16 -51 42 -24 33 -50 65 -59 73 -9 7 -27 31 -41 53 -39 61 -136 159
-247 248 -154 123 -153 127 3 20 96 -66 109 -56 16 13 -65 47 -280 172 -311
180 -13 4 -34 3 -48 0 l-26 -7 46 -58 c25 -32 79 -90 120 -131 41 -40 75 -76
75 -80 0 -5 17 -30 37 -57 36 -47 36 -47 6 -23 -17 14 -57 45 -89 70 -32 25
-72 59 -88 76 -35 36 -135 101 -248 161 -122 66 -438 177 -541 190 -26 4 -37
9 -33 18 5 15 -43 25 -121 25 -28 0 -54 4 -57 9 -3 4 -29 11 -58 15 -37 5 -48
10 -38 16 13 8 12 10 -2 10 -9 0 -18 -4 -20 -10 -1 -5 -39 -13 -83 -18 -75 -9
-77 -10 -30 -12 28 -2 78 -2 111 -1 37 2 64 -2 68 -8 5 -8 -24 -11 -96 -12
l-103 -2 70 -9 c39 -5 84 -10 100 -12 52 -5 105 -18 105 -26 0 -4 -19 -8 -42
-8 -78 -1 -163 -14 -183 -28 -18 -13 -16 -14 20 -15 34 -1 31 -3 -20 -10 -33
-5 -76 -11 -95 -15 l-35 -7 40 -8 c27 -5 62 -2 105 8 78 19 105 19 280 -1 325
-38 484 -79 695 -181 154 -74 312 -178 413 -271 68 -62 87 -87 136 -183 10
-20 25 -44 34 -53 8 -10 11 -18 6 -17 -5 0 -36 34 -69 74 -169 210 -230 267
-326 300 -46 17 -48 13 -11 -21 15 -13 -22 9 -83 49 -91 61 -130 79 -225 110
-105 33 -228 67 -245 67 -13 0 8 -22 39 -41 17 -10 24 -19 16 -19 -8 -1 10
-10 40 -22 30 -11 60 -25 65 -31 7 -7 5 -7 -4 -2 -9 5 -12 4 -7 -3 4 -6 13 -9
21 -5 8 3 15 0 15 -5 0 -6 20 -20 44 -33 24 -12 55 -31 68 -43 13 -11 49 -39
81 -60 73 -49 85 -66 17 -24 -87 54 -63 26 32 -37 50 -33 117 -81 150 -107 91
-72 240 -217 242 -236 2 -9 7 -17 12 -17 20 0 35 -18 29 -34 -3 -11 3 -25 15
-36 11 -10 20 -15 20 -11 0 4 14 -2 30 -14 34 -24 74 -95 64 -112 -4 -7 -3 -8
4 -4 11 6 28 -22 104 -167 27 -52 37 -104 18 -92 -12 8 -12 3 -1 -27 4 -13 11
-36 15 -53 5 -23 4 -27 -5 -15 -8 12 -10 10 -5 -10 2 -14 10 -63 17 -110 7
-47 18 -88 23 -92 16 -10 14 -317 -2 -343 -10 -18 -11 -17 -12 13 0 45 -17 40
-31 -10 -43 -164 -90 -292 -149 -415 -38 -79 -71 -143 -74 -143 -9 0 20 70 77
190 79 164 108 271 133 475 18 151 18 220 0 248 -7 12 -19 51 -26 87 -10 56
-66 237 -76 249 -2 2 -6 2 -9 0 -2 -3 9 -41 25 -85 41 -107 64 -299 57 -454
-3 -63 -11 -128 -16 -145 -8 -23 -8 -14 -3 35 8 77 7 237 -3 335 -7 72 -33
181 -41 173 -2 -3 3 -61 11 -129 8 -68 17 -142 19 -163 7 -66 -22 -295 -49
-391 -47 -165 -210 -468 -351 -655 -129 -170 -257 -288 -450 -417 -109 -72
-356 -203 -384 -203 -7 0 -78 -31 -158 -68 -81 -38 -168 -74 -194 -81 -27 -8
-48 -18 -48 -23 0 -5 -4 -7 -8 -4 -4 2 -21 -2 -37 -9 -17 -8 -70 -30 -120 -49
-146 -57 -214 -86 -263 -114 -26 -15 -58 -29 -72 -30 -14 -2 -32 -10 -41 -18
-8 -8 -18 -14 -22 -14 -6 0 -370 -160 -421 -186 -33 -16 -48 -19 -26 -4 9 6
10 10 3 10 -6 0 -15 -4 -18 -10 -3 -5 -13 -10 -20 -10 -8 0 -125 -54 -260
-120 -136 -66 -249 -120 -253 -120 -4 0 -45 -23 -92 -51 -108 -64 -258 -132
-272 -123 -7 5 -8 2 -3 -6 6 -10 4 -12 -8 -7 -10 4 -16 2 -14 -5 1 -6 -4 -13
-12 -16 -9 -3 -11 0 -6 8 5 9 4 11 -4 6 -6 -4 -9 -11 -6 -16 3 -4 -2 -11 -11
-14 -22 -9 -26 -8 -18 6 4 7 3 8 -5 4 -6 -4 -9 -11 -6 -15 2 -5 -7 -13 -21
-20 -19 -8 -24 -8 -18 1 4 6 -19 -3 -51 -20 -32 -18 -62 -32 -66 -32 -7 0
-105 157 -218 348 -90 153 -195 321 -199 318 -5 -6 37 -86 64 -122 13 -17 24
-35 24 -40 0 -5 15 -32 33 -59 18 -28 40 -66 50 -85 10 -19 38 -68 62 -108 51
-84 61 -113 13 -37 -17 28 -46 73 -65 102 -18 28 -55 89 -82 135 -26 45 -85
144 -131 218 -45 74 -83 141 -84 148 -2 8 -7 17 -13 20 -11 7 -50 66 -155 227
-285 439 -474 727 -492 750 -13 16 -13 13 1 -15 19 -37 70 -116 298 -464 77
-117 156 -240 176 -272 20 -32 76 -119 123 -192 47 -73 86 -135 86 -138 0 -3
28 -49 63 -102 49 -75 242 -393 264 -435 2 -4 -1 -7 -6 -7 -6 0 -11 5 -11 11
0 15 -69 111 -86 122 -8 4 -14 15 -14 22 0 8 -8 23 -17 33 -10 10 -41 53 -69
97 -27 44 -59 94 -69 110 -17 26 -17 28 -2 16 15 -12 17 -12 12 2 -4 8 -15 17
-25 20 -10 2 -44 49 -76 103 -32 55 -85 138 -118 187 -34 48 -70 103 -81 121
-38 64 -198 302 -250 371 -74 100 -280 410 -314 474 -10 18 -7 29 21 70 17 28
36 47 41 44 6 -3 7 -1 3 5 -3 5 17 50 45 99 69 117 190 361 223 448 28 74 53
121 40 75 -3 -14 -10 -29 -14 -35 -4 -5 -20 -46 -35 -90 -15 -44 -31 -89 -37
-100 -9 -20 -9 -20 6 -1 22 28 80 182 116 306 28 100 50 207 71 349 5 35 11
66 13 70 12 19 16 384 6 526 -26 357 -65 539 -161 742 -22 45 -39 86 -39 92 0
5 -6 16 -14 23 -7 8 -23 36 -35 62 -12 27 -24 46 -27 43 -9 -9 -94 81 -94 100
0 9 -26 47 -57 86 -32 38 -67 82 -78 97 -11 15 -53 56 -92 89 -40 34 -73 66
-73 71 0 5 14 16 30 25 17 9 30 20 30 25 0 6 -18 -1 -40 -15 l-40 -25 -47 33
c-27 18 -52 33 -58 32 -5 0 -52 22 -104 48 -110 56 -175 83 -234 96 -38 9 -40
8 -23 -5 31 -22 3 -17 -79 16 -42 17 -83 30 -93 30 -10 0 -26 6 -37 13 -45 30
-224 71 -360 83 -135 12 -139 24 -5 19 80 -3 117 -2 104 4 -31 14 -205 20
-329 11z m273 -81 c-18 -12 -50 -11 -68 1 -11 7 -1 9 33 8 29 -1 43 -4 35 -9z
m787 -255 l30 -25 -32 15 c-17 9 -35 20 -38 26 -11 18 10 10 40 -16z m-2365
-209 c-7 -8 -17 -15 -23 -15 -6 0 -2 7 9 15 25 19 30 19 14 0z m2330 -190 c7
-9 10 -18 6 -22 -3 -4 11 -25 31 -46 21 -22 31 -36 23 -32 -13 7 -13 6 1 -11
58 -72 114 -131 137 -145 15 -9 26 -24 26 -32 -1 -9 2 -14 7 -12 12 8 86 -105
126 -192 34 -74 40 -115 8 -53 -32 63 -36 16 -6 -80 55 -176 91 -367 91 -479
0 -69 -11 -20 -31 130 -26 204 -51 291 -133 464 -24 50 -44 95 -46 100 -5 24
-22 45 -30 40 -6 -3 -7 1 -4 10 5 13 9 13 22 3 9 -7 -2 13 -25 46 -59 84 -213
248 -228 242 -7 -2 -19 1 -26 7 -8 7 -3 0 10 -15 14 -16 27 -26 29 -23 9 9 52
-37 45 -48 -4 -6 -1 -7 8 -2 8 5 11 4 6 0 -8 -10 42 -67 53 -60 8 5 90 -88 90
-101 0 -4 -10 1 -22 12 l-22 19 20 -26 c10 -15 22 -22 25 -17 4 6 9 6 14 -2 4
-6 3 -16 -2 -21 -10 -10 -49 25 -55 49 -2 8 -33 43 -71 80 -42 41 -63 68 -56
73 8 5 8 8 0 13 -6 4 -11 2 -11 -4 0 -12 -44 14 -78 46 l-23 22 28 41 c30 44
44 49 63 26z m-35 -132 c115 -93 279 -329 331 -477 25 -71 8 -48 -26 37 -34
82 -112 206 -177 282 -59 69 -137 145 -142 139 -3 -3 -1 -8 4 -12 6 -4 50 -56
98 -117 48 -60 91 -115 95 -120 28 -35 83 -148 78 -161 -4 -10 -2 -13 6 -8 8
5 9 2 5 -10 -4 -9 -3 -15 2 -11 25 15 106 -263 116 -397 33 -439 3 -723 -105
-988 -76 -186 -151 -333 -174 -336 -8 -1 -12 4 -10 11 3 7 0 16 -7 21 -8 4
-10 3 -5 -4 4 -7 4 -12 1 -12 -12 0 -133 264 -170 370 -45 129 -85 294 -92
378 -3 34 -9 62 -14 62 -5 0 -9 7 -9 16 0 19 -22 14 -28 -7 -2 -9 -1 -10 5 -2
4 6 9 -25 9 -70 2 -130 103 -477 184 -637 10 -19 23 -54 29 -78 7 -23 16 -42
21 -42 6 0 10 -7 10 -15 0 -9 7 -29 15 -45 14 -27 14 -33 0 -59 -8 -17 -19
-32 -24 -36 -21 -12 -163 282 -224 465 -41 124 -53 172 -36 150 9 -12 10 -10
5 10 -3 14 -6 32 -7 40 0 8 -4 4 -8 -10 -10 -34 -43 133 -34 174 4 21 3 27 -6
22 -8 -5 -11 2 -11 26 1 18 -4 53 -10 78 -7 27 -12 152 -13 315 -1 213 2 296
16 395 31 217 78 382 153 534 27 54 36 81 24 66 l-21 -25 12 25 c18 38 63 110
69 110 4 0 32 -21 65 -47z m115 -48 c13 -14 21 -25 18 -25 -2 0 -15 11 -28 25
-13 14 -21 25 -18 25 2 0 15 -11 28 -25z m5244 -320 c17 -13 23 -23 15 -21
-23 3 -59 26 -59 36 0 16 13 11 44 -15z m-4967 -288 c14 -51 27 -101 30 -112
5 -16 3 -18 -8 -8 -7 7 -23 57 -35 110 -12 54 -25 107 -29 118 -6 19 -6 19 5
2 7 -10 23 -60 37 -110z m107 -38 c29 -114 44 -255 26 -244 -6 3 -10 19 -10
36 0 33 -27 223 -36 254 -4 11 -4 17 0 14 3 -3 12 -30 20 -60z m4936 -271 c0
-6 -7 -5 -15 2 -8 7 -15 17 -15 22 0 6 7 5 15 -2 8 -7 15 -17 15 -22z m-4997
-184 c-1 -102 -4 -188 -7 -192 -3 -3 -6 81 -6 186 0 106 3 192 8 192 4 0 6
-84 5 -186z m94 154 c-3 -7 -5 -2 -5 12 0 14 2 19 5 13 2 -7 2 -19 0 -25z
m5393 -63 c0 -5 -9 4 -20 20 -11 17 -20 37 -20 45 1 16 39 -48 40 -65z m-5423
-117 c-2 -13 -4 -5 -4 17 -1 22 1 32 4 23 2 -10 2 -28 0 -40z m-40 -205 c-3
-10 -5 -4 -5 12 0 17 2 24 5 18 2 -7 2 -21 0 -30z m-660 -15 c-3 -7 -5 -2 -5
12 0 14 2 19 5 13 2 -7 2 -19 0 -25z m625 -30 c-8 -35 -17 -17 -13 25 4 35 5
38 11 17 3 -14 4 -33 2 -42z m55 -55 c-3 -10 -5 -4 -5 12 0 17 2 24 5 18 2 -7
2 -21 0 -30z m-10 -55 c-3 -8 -6 -5 -6 6 -1 11 2 17 5 13 3 -3 4 -12 1 -19z
m5170 -195 c-3 -10 -5 -2 -5 17 0 19 2 27 5 18 2 -10 2 -26 0 -35z m-5326
-156 c-10 -9 -11 -8 -5 6 3 10 9 15 12 12 3 -3 0 -11 -7 -18z m467 -117 c-11
-48 -36 -112 -75 -198 -29 -63 -154 -291 -181 -330 -11 -15 -21 -31 -23 -37
-11 -28 -55 -84 -64 -82 -15 5 -12 32 3 29 8 -1 11 2 7 8 -3 5 10 35 30 66 20
31 41 66 46 78 5 12 17 35 27 51 55 91 190 355 221 433 18 44 22 37 9 -18z
m4787 -130 c-9 -30 -26 -90 -37 -134 -17 -59 -24 -73 -29 -58 -5 13 2 46 21
94 15 40 34 100 41 133 8 33 15 51 17 40 1 -11 -5 -45 -13 -75z m62 -122 c-3
-8 -6 -5 -6 6 -1 11 2 17 5 13 3 -3 4 -12 1 -19z m-32 -97 c-13 -41 -40 -97
-60 -126 -19 -30 -35 -58 -35 -63 0 -5 -7 -16 -16 -23 -9 -7 6 31 33 86 52
104 76 157 87 189 4 10 9 17 11 14 3 -2 -6 -37 -20 -77z m-175 -152 c-6 -11
-15 -17 -21 -14 -5 4 -5 14 1 26 6 11 15 17 21 14 5 -4 5 -14 -1 -26z m-60
-76 c-31 -55 -108 -173 -175 -266 -17 -23 -36 -43 -43 -45 -7 -1 16 35 52 80
35 45 92 128 127 185 66 111 92 140 39 46z m14 -103 c-10 -16 -20 -27 -22 -25
-5 5 26 55 34 55 3 0 -3 -13 -12 -30z m-50 -75 c-9 -14 -18 -25 -21 -25 -5 0
5 18 20 38 17 22 18 13 1 -13z m-4974 -46 c-7 -11 -14 -18 -17 -15 -3 3 0 12
7 21 18 21 23 19 10 -6z m4920 17 c0 -2 -8 -10 -17 -17 -16 -13 -17 -12 -4 4
13 16 21 21 21 13z m-4690 -336 c106 -162 219 -334 251 -382 33 -47 59 -93 59
-102 0 -8 7 -19 16 -24 8 -5 16 -16 18 -25 1 -9 6 -20 11 -24 4 -5 5 -1 0 7
-15 27 2 6 39 -47 42 -61 44 -68 14 -51 -13 7 -26 11 -29 11 -4 -1 -46 60 -95
135 -49 75 -187 283 -306 462 -181 272 -215 327 -206 343 8 16 12 17 23 6 7
-8 99 -147 205 -309z m4640 267 c0 -2 -10 -12 -22 -23 l-23 -19 19 23 c18 21
26 27 26 19z m-49 -106 c-28 -32 -58 -64 -68 -72 -10 -8 11 19 46 59 35 39 66
72 68 72 3 0 -18 -26 -46 -59z m-10091 -56 l25 -30 -27 24 c-16 14 -28 29 -28
34 0 6 1 8 3 6 1 -2 13 -17 27 -34z m9920 -38 c0 -2 -12 -14 -27 -28 l-28 -24
24 28 c23 25 31 32 31 24z m-70 -60 c0 -2 -10 -12 -22 -23 l-23 -19 19 23 c18
21 26 27 26 19z m-80 -72 c0 -2 -10 -9 -22 -15 -22 -11 -22 -10 -4 4 21 17 26
19 26 11z m-50 -29 c0 -2 -8 -10 -17 -17 -16 -13 -17 -12 -4 4 13 16 21 21 21
13z m-4100 -186 c6 -11 8 -20 6 -20 -3 0 -10 9 -16 20 -6 11 -8 20 -6 20 3 0
10 -9 16 -20z m149 -228 c99 -156 119 -197 42 -85 -66 97 -167 262 -148 243 8
-8 56 -79 106 -158z m4304 73 c-20 -25 -41 -45 -45 -45 -5 0 -43 -24 -86 -54
-144 -99 -538 -302 -525 -270 4 12 -1 11 -33 -2 -67 -27 -23 2 51 34 81 36
218 105 290 148 80 46 107 62 152 84 23 11 83 49 135 85 51 35 94 64 96 65 2
0 -14 -20 -35 -45z m-4140 -266 c11 -15 16 -18 13 -6 -3 9 -2 17 3 17 16 0 21
-13 10 -27 -11 -12 2 -39 90 -183 8 -14 10 -20 4 -15 -14 14 -173 265 -173
273 1 7 22 -16 53 -59z m-44 9 c88 -140 109 -178 90 -168 -11 6 -17 15 -14 21
4 5 2 9 -4 9 -6 0 -20 19 -32 43 -12 23 -32 56 -45 74 -13 17 -24 34 -24 37 0
14 16 4 29 -16z m3421 -143 c-14 -8 -29 -14 -35 -14 -5 0 1 6 15 14 14 8 30
14 35 14 6 0 -1 -6 -15 -14z m-50 -20 c0 -5 -69 -35 -79 -34 -5 0 68 38 77 39
1 0 2 -2 2 -5z m-3157 -178 c28 -46 57 -92 64 -102 6 -11 53 -87 104 -170 92
-150 159 -261 212 -352 15 -26 43 -74 62 -105 l36 -57 62 34 c71 39 147 72
132 57 -19 -19 -190 -112 -200 -109 -13 4 -54 67 -129 199 -74 129 -142 242
-171 288 -12 19 -35 57 -51 84 -16 28 -41 70 -57 95 -15 25 -37 64 -48 86 -12
22 -25 42 -28 45 -8 6 -51 79 -51 86 0 15 17 -6 63 -79z m-2373 -21 c-30 -49
-36 -46 -8 3 12 22 24 38 26 36 3 -2 -6 -20 -18 -39z m-1880 -76 c8 -5 11 -10
5 -10 -5 0 -17 5 -25 10 -8 5 -10 10 -5 10 6 0 17 -5 25 -10z m238 -110 c81
-38 160 -75 176 -82 118 -53 218 -107 199 -107 -13 -1 -23 4 -23 9 0 6 -4 9
-9 8 -7 -3 -95 38 -171 79 -14 7 -47 23 -75 35 -80 35 -261 127 -252 127 4 1
74 -30 155 -69z m5192 35 c-7 -8 -18 -15 -24 -15 -6 0 -2 7 8 15 25 19 32 19
16 0z m-3671 -59 c-29 -49 -36 -46 -8 4 12 22 24 38 26 36 2 -2 -6 -20 -18
-40z m2946 -71 c15 -27 19 -41 10 -30 -19 23 -63 105 -47 90 5 -5 22 -32 37
-60z m15 25 c6 -11 8 -20 6 -20 -3 0 -10 9 -16 20 -6 11 -8 20 -6 20 3 0 10
-9 16 -20z m-4200 0 c0 -5 -4 -10 -9 -10 -6 0 -13 5 -16 10 -3 6 1 10 9 10 9
0 16 -4 16 -10z m1159 -97 c-28 -54 -58 -105 -64 -113 -7 -8 -22 -34 -34 -57
-11 -23 -25 -44 -31 -48 -11 -6 -113 45 -106 53 3 2 26 -8 53 -22 28 -16 49
-23 51 -16 2 5 34 61 71 123 38 61 76 127 85 145 9 17 19 32 22 32 3 0 -18
-44 -47 -97z m3461 52 c0 -2 -43 -27 -95 -56 -52 -28 -95 -55 -95 -60 0 -6 -4
-8 -10 -4 -5 3 -34 -8 -64 -25 -31 -18 -60 -29 -66 -25 -12 8 -53 85 -47 91 2
2 14 -15 27 -39 30 -54 27 -52 43 -39 7 6 71 41 142 77 72 37 134 71 140 76 9
9 25 12 25 4z m-284 -110 c-24 -18 -33 -19 -42 -3 -4 7 -3 8 4 4 7 -4 20 -2
29 3 26 15 31 13 9 -4z m-3793 -170 c182 -90 352 -175 377 -189 25 -13 78 -40
117 -60 l73 -35 26 47 c38 67 85 142 90 142 7 0 -30 -78 -68 -142 -21 -38 -43
-68 -49 -68 -6 0 -85 39 -177 86 -92 48 -295 152 -452 231 -157 80 -287 147
-289 149 -22 21 69 -21 352 -161z m306 129 c14 -12 -19 -1 -35 12 -18 14 -18
14 6 3 14 -6 27 -13 29 -15z m401 -194 c-6 -11 -13 -20 -16 -20 -2 0 0 9 6 20
6 11 13 20 16 20 2 0 0 -9 -6 -20z m3210 5 c0 -2 -10 -9 -22 -15 -22 -11 -22
-10 -4 4 21 17 26 19 26 11z"/>
<path d="M6090 6153 c0 -5 21 -29 46 -53 25 -25 71 -80 101 -122 30 -43 59
-80 64 -84 17 -10 21 3 9 25 -21 40 -1 21 26 -24 14 -25 28 -45 31 -45 3 0 -9
24 -25 53 -17 28 -35 51 -41 50 -6 -2 -10 0 -10 5 3 19 -2 33 -10 27 -6 -3
-13 1 -18 8 -13 22 -173 170 -173 160z"/>
<path d="M6512 5280 c0 -19 2 -27 5 -17 2 9 2 25 0 35 -3 9 -5 1 -5 -18z"/>
<path d="M6132 4930 c0 -19 2 -27 5 -17 2 9 2 25 0 35 -3 9 -5 1 -5 -18z"/>
<path d="M5831 4934 c0 -11 3 -14 6 -6 3 7 2 16 -1 19 -3 4 -6 -2 -5 -13z"/>
<path d="M6501 4834 c0 -11 3 -14 6 -6 3 7 2 16 -1 19 -3 4 -6 -2 -5 -13z"/>
<path d="M5861 4694 c0 -11 3 -14 6 -6 3 7 2 16 -1 19 -3 4 -6 -2 -5 -13z"/>
<path d="M5881 4604 c0 -11 3 -14 6 -6 3 7 2 16 -1 19 -3 4 -6 -2 -5 -13z"/>
<path d="M5911 4484 c0 -11 3 -14 6 -6 3 7 2 16 -1 19 -3 4 -6 -2 -5 -13z"/>
<path d="M5921 4450 c0 -8 4 -22 9 -30 12 -18 12 -2 0 25 -6 13 -9 15 -9 5z"/>
<path d="M5950 4356 c0 -8 4 -17 9 -20 5 -4 7 3 4 14 -6 23 -13 26 -13 6z"/>
<path d="M5990 4258 c0 -11 30 -78 35 -78 3 0 -2 17 -10 37 -15 36 -25 52 -25
41z"/>
<path d="M5850 7006 c0 -3 23 -16 50 -30 28 -14 50 -21 50 -16 0 10 -40 33
-77 44 -13 4 -23 5 -23 2z"/>
<path d="M5860 6976 c0 -2 7 -7 16 -10 8 -3 12 -2 9 4 -6 10 -25 14 -25 6z"/>
<path d="M7915 6960 c3 -5 16 -10 28 -9 21 0 21 1 2 9 -28 12 -37 12 -30 0z"/>
<path d="M8340 6769 c26 -18 70 -40 70 -35 0 6 -66 46 -76 46 -5 0 -2 -5 6
-11z"/>
<path d="M4230 6615 c-14 -8 -20 -14 -14 -15 5 0 19 7 30 15 24 18 16 19 -16
0z"/>
<path d="M5505 6570 c72 -31 207 -83 243 -93 24 -7 40 -16 36 -20 -7 -7 11
-11 30 -8 5 1 27 -7 50 -17 46 -22 86 -35 86 -29 0 8 -99 67 -114 67 -9 0 -62
18 -118 39 -109 41 -205 71 -222 70 -6 0 -2 -4 9 -9z"/>
<path d="M5730 6560 c8 -5 20 -10 25 -10 6 0 3 5 -5 10 -8 5 -19 10 -25 10 -5
0 -3 -5 5 -10z"/>
<path d="M5228 6553 c7 -3 16 -2 19 1 4 3 -2 6 -13 5 -11 0 -14 -3 -6 -6z"/>
<path d="M5860 6506 c0 -5 87 -68 110 -80 8 -5 2 3 -15 18 -31 26 -95 68 -95
62z"/>
<path d="M5927 6489 c7 -7 15 -10 18 -7 3 3 -2 9 -12 12 -14 6 -15 5 -6 -5z"/>
<path d="M9900 6290 c-19 -5 -78 -15 -130 -24 -110 -17 -112 -18 -244 -50 -55
-14 -102 -29 -105 -34 -3 -5 -42 -28 -86 -50 -83 -42 -157 -91 -85 -56 l35 17
-20 -23 -20 -24 35 21 c130 77 236 129 275 134 6 1 20 5 33 10 30 11 194 45
292 59 41 6 79 15 84 20 12 12 -12 11 -64 0z"/>
<path d="M9314 6145 c-10 -8 -14 -15 -8 -15 5 0 19 7 30 15 10 8 14 15 8 15
-5 0 -19 -7 -30 -15z"/>
<path d="M3414 6138 c-4 -7 -15 -24 -23 -38 -10 -15 -11 -21 -3 -16 13 7 46
66 38 66 -3 0 -8 -6 -12 -12z"/>
<path d="M2239 6119 c-10 -6 -4 -9 19 -9 17 0 32 2 32 4 0 9 -39 13 -51 5z"/>
<path d="M10278 6123 c6 -2 18 -2 25 0 6 3 1 5 -13 5 -14 0 -19 -2 -12 -5z"/>
<path d="M1785 6060 c-16 -7 -17 -9 -3 -9 9 -1 20 4 23 9 7 11 7 11 -20 0z"/>
<path d="M11895 5555 c35 -61 34 -60 41 -53 8 9 -20 60 -47 83 -20 18 -20 15
6 -30z"/>
<path d="M11335 5432 c10 -20 133 -184 165 -220 17 -19 27 -38 24 -43 -3 -5 2
-12 11 -15 8 -4 32 -31 51 -60 20 -30 40 -56 45 -59 19 -12 -35 92 -65 125
-18 19 -57 69 -88 110 -52 71 -157 190 -143 162z"/>
<path d="M11430 5356 c0 -2 8 -10 18 -17 15 -13 16 -12 3 4 -13 16 -21 21 -21
13z"/>
<path d="M11621 5150 c0 -8 6 -26 14 -40 8 -14 14 -19 14 -10 0 8 -6 26 -14
40 -8 14 -14 19 -14 10z"/>
<path d="M11581 5025 c0 -5 8 -26 19 -45 11 -19 19 -30 19 -25 0 6 -8 26 -19
45 -11 19 -19 31 -19 25z"/>
<path d="M11736 4965 c4 -8 10 -15 15 -15 4 0 6 7 3 15 -4 8 -10 15 -15 15 -4
0 -6 -7 -3 -15z"/>
<path d="M11710 4938 c0 -9 5 -20 10 -23 13 -8 13 5 0 25 -8 13 -10 13 -10 -2z"/>
<path d="M11620 4933 c1 -12 39 -79 40 -70 0 12 -28 77 -34 77 -4 0 -6 -3 -6
-7z"/>
<path d="M11556 4877 c3 -10 9 -15 12 -12 3 3 0 11 -7 18 -10 9 -11 8 -5 -6z"/>
<path d="M11720 4852 c0 -4 7 -17 15 -28 8 -10 14 -23 15 -29 0 -5 -5 -3 -10
5 -8 11 -9 7 -4 -15 10 -49 13 -57 24 -50 5 3 11 -3 12 -14 4 -52 8 -79 17
-121 6 -25 11 -65 12 -90 1 -29 3 -36 6 -20 12 60 -40 326 -68 353 -11 10 -19
14 -19 9z m37 -94 c-3 -8 -6 -5 -6 6 -1 11 2 17 5 13 3 -3 4 -12 1 -19z"/>
<path d="M11621 4745 c0 -5 6 -39 14 -75 8 -36 15 -92 15 -125 0 -75 10 -135
21 -135 5 0 10 10 11 23 1 12 5 -9 8 -48 l7 -70 0 87 c0 81 -14 168 -30 184
-4 4 -7 19 -8 33 0 26 -36 145 -38 126z"/>
<path d="M6832 3935 c-17 -37 -14 -45 4 -12 9 16 14 31 11 33 -2 2 -9 -7 -15
-21z"/>
<path d="M11511 3783 c-10 -26 -10 -27 4 -9 8 11 15 23 15 28 0 15 -7 8 -19
-19z"/>
<path d="M6627 3539 c10 -17 24 -36 32 -42 8 -7 2 7 -14 31 -32 49 -45 57 -18
11z"/>
<path d="M6780 3438 c12 -21 23 -38 25 -38 10 0 -10 41 -27 57 -19 17 -19 15
2 -19z"/>
<path d="M6700 3431 c5 -11 15 -23 21 -27 6 -3 3 5 -6 20 -20 30 -30 35 -15 7z"/>
<path d="M1319 3423 c6 -10 22 -31 36 -48 20 -23 19 -18 -6 18 -32 46 -49 63
-30 30z"/>
<path d="M6885 3275 c80 -125 111 -165 128 -165 6 0 1 10 -10 23 -25 28 -103
144 -103 154 -1 5 -21 31 -46 58 -42 46 -39 40 31 -70z"/>
<path d="M1080 3236 c0 -2 7 -9 15 -16 13 -11 14 -10 9 4 -5 14 -24 23 -24 12z"/>
<path d="M6332 3204 c-12 -19 -20 -34 -18 -34 7 0 49 61 44 65 -2 2 -13 -12
-26 -31z"/>
<path d="M7020 3091 c0 -6 4 -13 10 -16 6 -3 7 1 4 9 -7 18 -14 21 -14 7z"/>
<path d="M7046 3047 c3 -10 9 -15 12 -12 3 3 0 11 -7 18 -10 9 -11 8 -5 -6z"/>
<path d="M1553 2775 c0 -13 58 -62 105 -89 29 -17 9 4 -23 24 -19 12 -34 26
-32 33 1 6 -7 11 -18 12 -11 0 -20 5 -20 12 0 6 -3 14 -6 17 -3 3 -6 -1 -6 -9z"/>
<path d="M6697 2652 c9 -18 28 -45 41 -60 l23 -27 -18 33 c-9 18 -28 45 -41
60 l-23 27 18 -33z"/>
<path d="M2407 2619 c7 -7 15 -10 18 -7 3 3 -2 9 -12 12 -14 6 -15 5 -6 -5z"/>
<path d="M2494 2476 c11 -9 24 -16 30 -16 12 0 7 5 -24 19 -24 11 -24 11 -6
-3z"/>
<path d="M11060 2469 c-22 -18 -22 -19 -3 -10 12 6 25 16 28 21 9 15 3 12 -25
-11z"/>
<path d="M2671 2476 c2 -2 20 -11 39 -20 l35 -17 -25 20 c-14 11 -31 21 -39
21 -8 0 -12 -2 -10 -4z"/>
<path d="M2751 2436 c15 -13 281 -127 286 -122 7 7 -146 79 -226 107 -53 19
-68 22 -60 15z"/>
<path d="M2640 2410 c8 -5 20 -10 25 -10 6 0 3 5 -5 10 -8 5 -19 10 -25 10 -5
0 -3 -5 5 -10z"/>
<path d="M3075 2300 c17 -11 35 -20 40 -20 6 0 -3 9 -20 20 -16 11 -34 20 -40
20 -5 0 4 -9 20 -20z"/>
<path d="M3097 2199 c7 -7 15 -10 18 -7 3 3 -2 9 -12 12 -14 6 -15 5 -6 -5z"/>
<path d="M10328 2157 c-42 -18 -80 -36 -85 -40 -9 -9 76 23 142 53 68 31 25
21 -57 -13z"/>
<path d="M5523 2038 c-15 -20 -25 -38 -20 -38 3 0 12 11 21 25 17 26 16 35 -1
13z"/>
<path d="M5436 1907 c-54 -84 -90 -147 -83 -147 3 0 31 42 63 93 32 50 64 102
72 115 8 12 11 22 8 22 -4 0 -30 -37 -60 -83z"/>
<path d="M3095 1730 c33 -16 65 -29 70 -29 6 0 -17 13 -50 29 -33 17 -64 29
-70 29 -5 0 17 -14 50 -29z"/>
<path d="M3410 1585 c0 -4 22 -15 93 -47 30 -13 18 0 -15 17 -45 23 -78 35
-78 30z"/>
<path d="M8930 1560 c-8 -5 -10 -10 -5 -10 6 0 17 5 25 10 8 5 11 10 5 10 -5
0 -17 -5 -25 -10z"/>
<path d="M8751 1479 c-68 -33 -121 -62 -118 -65 3 -3 63 24 133 60 71 36 125
65 119 65 -5 0 -66 -27 -134 -60z"/>
</g>
</svg>
